<svg width="53" height="47" viewBox="0 0 53 47" fill="none" xmlns="http://www.w3.org/2000/svg">
<path d="M1.62678 43.0379C1.61251 42.9174 1.55463 42.8239 1.45316 42.7573C1.35168 42.6907 1.22722 42.6574 1.07976 42.6574C0.971943 42.6574 0.877603 42.6749 0.79674 42.7097C0.716669 42.7446 0.65404 42.7926 0.608852 42.8536C0.564456 42.9147 0.542259 42.984 0.542259 43.0617C0.542259 43.1267 0.557718 43.1826 0.588636 43.2294C0.620347 43.2754 0.660779 43.3138 0.709931 43.3448C0.759083 43.3749 0.810613 43.3998 0.864522 43.4197C0.918431 43.4387 0.967979 43.4542 1.01317 43.466L1.26051 43.5326C1.32394 43.5493 1.39449 43.5723 1.47218 43.6016C1.55067 43.6309 1.62559 43.671 1.69694 43.7217C1.76908 43.7717 1.82854 43.8359 1.87531 43.9144C1.92209 43.9928 1.94547 44.0892 1.94547 44.2033C1.94547 44.3349 1.91099 44.4538 1.84201 44.5601C1.77384 44.6663 1.67395 44.7507 1.54235 44.8134C1.41154 44.876 1.25259 44.9073 1.06549 44.9073C0.89108 44.9073 0.740056 44.8792 0.612419 44.8229C0.485575 44.7666 0.385685 44.6881 0.31275 44.5874C0.240607 44.4867 0.19978 44.3698 0.190266 44.2366H0.494692C0.50262 44.3286 0.533538 44.4047 0.587447 44.4649C0.642148 44.5244 0.71112 44.5688 0.794361 44.5981C0.878396 44.6267 0.968772 44.6409 1.06549 44.6409C1.17806 44.6409 1.27914 44.6227 1.36873 44.5862C1.45831 44.549 1.52926 44.4974 1.58159 44.4316C1.63391 44.3651 1.66007 44.2874 1.66007 44.1986C1.66007 44.1177 1.63748 44.0519 1.59229 44.0012C1.5471 43.9504 1.48764 43.9092 1.41392 43.8775C1.34019 43.8458 1.26051 43.818 1.17489 43.7943L0.875225 43.7086C0.684958 43.6539 0.534331 43.5758 0.423342 43.4744C0.312354 43.3729 0.256859 43.2401 0.256859 43.076C0.256859 42.9396 0.293723 42.8207 0.367452 42.7193C0.441973 42.617 0.541862 42.5377 0.667121 42.4814C0.793172 42.4243 0.93389 42.3958 1.08927 42.3958C1.24624 42.3958 1.38577 42.4239 1.50786 42.4802C1.62995 42.5357 1.72667 42.6118 1.79802 42.7085C1.87016 42.8053 1.90821 42.9151 1.91218 43.0379H1.62678ZM4.48523 43.6468C4.48523 43.9037 4.43885 44.1256 4.3461 44.3127C4.25334 44.4998 4.1261 44.6441 3.96437 44.7456C3.80265 44.8471 3.61793 44.8978 3.41022 44.8978C3.20252 44.8978 3.0178 44.8471 2.85607 44.7456C2.69435 44.6441 2.56711 44.4998 2.47435 44.3127C2.3816 44.1256 2.33522 43.9037 2.33522 43.6468C2.33522 43.3899 2.3816 43.168 2.47435 42.9809C2.56711 42.7938 2.69435 42.6495 2.85607 42.548C3.0178 42.4465 3.20252 42.3958 3.41022 42.3958C3.61793 42.3958 3.80265 42.4465 3.96437 42.548C4.1261 42.6495 4.25334 42.7938 4.3461 42.9809C4.43885 43.168 4.48523 43.3899 4.48523 43.6468ZM4.19983 43.6468C4.19983 43.4359 4.16455 43.2579 4.09399 43.1129C4.02423 42.9678 3.92949 42.858 3.80978 42.7835C3.69087 42.7089 3.55768 42.6717 3.41022 42.6717C3.26277 42.6717 3.12919 42.7089 3.00948 42.7835C2.89056 42.858 2.79582 42.9678 2.72527 43.1129C2.6555 43.2579 2.62062 43.4359 2.62062 43.6468C2.62062 43.8577 2.6555 44.0357 2.72527 44.1807C2.79582 44.3258 2.89056 44.4356 3.00948 44.5101C3.12919 44.5847 3.26277 44.6219 3.41022 44.6219C3.55768 44.6219 3.69087 44.5847 3.80978 44.5101C3.92949 44.4356 4.02423 44.3258 4.09399 44.1807C4.16455 44.0357 4.19983 43.8577 4.19983 43.6468ZM6.94085 43.1902H6.64594C6.6285 43.1053 6.59798 43.0308 6.55437 42.9666C6.51156 42.9024 6.45924 42.8485 6.3974 42.8049C6.33636 42.7605 6.26858 42.7272 6.19406 42.705C6.11954 42.6828 6.04184 42.6717 5.96098 42.6717C5.81352 42.6717 5.67994 42.7089 5.56023 42.7835C5.44132 42.858 5.34658 42.9678 5.27602 43.1129C5.20626 43.2579 5.17138 43.4359 5.17138 43.6468C5.17138 43.8577 5.20626 44.0357 5.27602 44.1807C5.34658 44.3258 5.44132 44.4356 5.56023 44.5101C5.67994 44.5847 5.81352 44.6219 5.96098 44.6219C6.04184 44.6219 6.11954 44.6108 6.19406 44.5886C6.26858 44.5664 6.33636 44.5335 6.3974 44.4899C6.45924 44.4455 6.51156 44.3912 6.55437 44.327C6.59798 44.262 6.6285 44.1875 6.64594 44.1034H6.94085C6.91865 44.2279 6.87822 44.3393 6.81956 44.4376C6.76089 44.5359 6.68796 44.6195 6.60075 44.6885C6.51355 44.7567 6.41564 44.8086 6.30703 44.8443C6.19921 44.88 6.08386 44.8978 5.96098 44.8978C5.75327 44.8978 5.56856 44.8471 5.40683 44.7456C5.2451 44.6441 5.11786 44.4998 5.02511 44.3127C4.93235 44.1256 4.88598 43.9037 4.88598 43.6468C4.88598 43.3899 4.93235 43.168 5.02511 42.9809C5.11786 42.7938 5.2451 42.6495 5.40683 42.548C5.56856 42.4465 5.75327 42.3958 5.96098 42.3958C6.08386 42.3958 6.19921 42.4136 6.30703 42.4493C6.41564 42.485 6.51355 42.5373 6.60075 42.6063C6.68796 42.6745 6.76089 42.7577 6.81956 42.856C6.87822 42.9535 6.91865 43.0649 6.94085 43.1902ZM7.71232 42.4291V44.8645H7.41741V42.4291H7.71232ZM8.40352 44.8645H8.09434L8.98859 42.4291H9.29302L10.1873 44.8645H9.87809L9.15032 42.8144H9.13129L8.40352 44.8645ZM8.51768 43.9132H9.76393V44.1748H8.51768V43.9132ZM10.5666 44.8645V42.4291H10.8615V44.6029H11.9936V44.8645H10.5666ZM15.0569 43.1902C15.0307 43.1101 14.9962 43.0383 14.9534 42.9749C14.9114 42.9107 14.8611 42.856 14.8024 42.8108C14.7445 42.7656 14.6787 42.7311 14.605 42.7074C14.5313 42.6836 14.4504 42.6717 14.3624 42.6717C14.2181 42.6717 14.0869 42.7089 13.9688 42.7835C13.8507 42.858 13.7567 42.9678 13.687 43.1129C13.6172 43.2579 13.5823 43.4359 13.5823 43.6468C13.5823 43.8577 13.6176 44.0357 13.6882 44.1807C13.7587 44.3258 13.8543 44.4356 13.9748 44.5101C14.0953 44.5847 14.2308 44.6219 14.3814 44.6219C14.521 44.6219 14.6439 44.5922 14.7501 44.5327C14.8571 44.4725 14.9404 44.3876 14.9998 44.2782C15.0601 44.168 15.0902 44.0384 15.0902 43.8894L15.1806 43.9084H14.448V43.6468H15.3756V43.9084C15.3756 44.109 15.3328 44.2834 15.2472 44.4316C15.1623 44.5799 15.045 44.6948 14.8952 44.7765C14.7461 44.8574 14.5749 44.8978 14.3814 44.8978C14.1658 44.8978 13.9763 44.8471 13.813 44.7456C13.6505 44.6441 13.5237 44.4998 13.4325 44.3127C13.3421 44.1256 13.2969 43.9037 13.2969 43.6468C13.2969 43.4542 13.3227 43.2809 13.3742 43.1271C13.4266 42.9725 13.5003 42.8409 13.5954 42.7323C13.6905 42.6237 13.8031 42.5405 13.9331 42.4826C14.0632 42.4247 14.2062 42.3958 14.3624 42.3958C14.4909 42.3958 14.6106 42.4152 14.7216 42.4541C14.8333 42.4921 14.9328 42.5464 15.02 42.617C15.108 42.6867 15.1814 42.7704 15.24 42.8679C15.2987 42.9646 15.3391 43.072 15.3613 43.1902H15.0569ZM17.9356 43.6468C17.9356 43.9037 17.8892 44.1256 17.7964 44.3127C17.7037 44.4998 17.5764 44.6441 17.4147 44.7456C17.253 44.8471 17.0683 44.8978 16.8606 44.8978C16.6529 44.8978 16.4681 44.8471 16.3064 44.7456C16.1447 44.6441 16.0174 44.4998 15.9247 44.3127C15.8319 44.1256 15.7856 43.9037 15.7856 43.6468C15.7856 43.3899 15.8319 43.168 15.9247 42.9809C16.0174 42.7938 16.1447 42.6495 16.3064 42.548C16.4681 42.4465 16.6529 42.3958 16.8606 42.3958C17.0683 42.3958 17.253 42.4465 17.4147 42.548C17.5764 42.6495 17.7037 42.7938 17.7964 42.9809C17.8892 43.168 17.9356 43.3899 17.9356 43.6468ZM17.6502 43.6468C17.6502 43.4359 17.6149 43.2579 17.5443 43.1129C17.4746 42.9678 17.3798 42.858 17.2601 42.7835C17.1412 42.7089 17.008 42.6717 16.8606 42.6717C16.7131 42.6717 16.5795 42.7089 16.4598 42.7835C16.3409 42.858 16.2462 42.9678 16.1756 43.1129C16.1058 43.2579 16.071 43.4359 16.071 43.6468C16.071 43.8577 16.1058 44.0357 16.1756 44.1807C16.2462 44.3258 16.3409 44.4356 16.4598 44.5101C16.5795 44.5847 16.7131 44.6219 16.8606 44.6219C17.008 44.6219 17.1412 44.5847 17.2601 44.5101C17.3798 44.4356 17.4746 44.3258 17.5443 44.1807C17.6149 44.0357 17.6502 43.8577 17.6502 43.6468ZM20.4863 43.6468C20.4863 43.9037 20.4399 44.1256 20.3472 44.3127C20.2544 44.4998 20.1272 44.6441 19.9655 44.7456C19.8037 44.8471 19.619 44.8978 19.4113 44.8978C19.2036 44.8978 19.0189 44.8471 18.8572 44.7456C18.6954 44.6441 18.5682 44.4998 18.4754 44.3127C18.3827 44.1256 18.3363 43.9037 18.3363 43.6468C18.3363 43.3899 18.3827 43.168 18.4754 42.9809C18.5682 42.7938 18.6954 42.6495 18.8572 42.548C19.0189 42.4465 19.2036 42.3958 19.4113 42.3958C19.619 42.3958 19.8037 42.4465 19.9655 42.548C20.1272 42.6495 20.2544 42.7938 20.3472 42.9809C20.4399 43.168 20.4863 43.3899 20.4863 43.6468ZM20.2009 43.6468C20.2009 43.4359 20.1656 43.2579 20.0951 43.1129C20.0253 42.9678 19.9306 42.858 19.8109 42.7835C19.692 42.7089 19.5588 42.6717 19.4113 42.6717C19.2639 42.6717 19.1303 42.7089 19.0106 42.7835C18.8917 42.858 18.7969 42.9678 18.7264 43.1129C18.6566 43.2579 18.6217 43.4359 18.6217 43.6468C18.6217 43.8577 18.6566 44.0357 18.7264 44.1807C18.7969 44.3258 18.8917 44.4356 19.0106 44.5101C19.1303 44.5847 19.2639 44.6219 19.4113 44.6219C19.5588 44.6219 19.692 44.5847 19.8109 44.5101C19.9306 44.4356 20.0253 44.3258 20.0951 44.1807C20.1656 44.0357 20.2009 43.8577 20.2009 43.6468ZM21.7338 44.8645H20.9822V42.4291H21.767C22.0033 42.4291 22.2055 42.4779 22.3735 42.5754C22.5416 42.6721 22.6704 42.8112 22.76 42.9928C22.8496 43.1735 22.8944 43.3899 22.8944 43.642C22.8944 43.8957 22.8492 44.1141 22.7588 44.2973C22.6684 44.4796 22.5368 44.6199 22.364 44.7182C22.1912 44.8157 21.9811 44.8645 21.7338 44.8645ZM21.2771 44.6029H21.7147C21.9161 44.6029 22.083 44.564 22.2154 44.4863C22.3478 44.4087 22.4465 44.2981 22.5115 44.1546C22.5765 44.0111 22.609 43.8402 22.609 43.642C22.609 43.4454 22.5769 43.2762 22.5127 43.1343C22.4484 42.9916 22.3525 42.8822 22.2249 42.8061C22.0972 42.7292 21.9383 42.6907 21.748 42.6907H21.2771V44.6029ZM23.1545 42.6907V42.4291H24.9811V42.6907H24.2152V44.8645H23.9203V42.6907H23.1545ZM25.2516 44.8645H24.9424L25.8367 42.4291H26.1411L27.0353 44.8645H26.7262L25.9984 42.8144H25.9794L25.2516 44.8645ZM25.3658 43.9132H26.612V44.1748H25.3658V43.9132ZM27.4147 44.8645V42.4291H27.7096V44.6029H28.8417V44.8645H27.4147ZM29.2983 44.8645V42.4291H30.7681V42.6907H29.5932V43.5136H30.692V43.7752H29.5932V44.6029H30.7872V44.8645H29.2983ZM33.2309 42.4291V44.8645H32.9455L31.6184 42.9523H31.5946V44.8645H31.2997V42.4291H31.5851L32.9169 44.346H32.9407V42.4291H33.2309ZM33.6878 42.6907V42.4291H35.5144V42.6907H34.7486V44.8645H34.4536V42.6907H33.6878Z" fill="#8F1FFC"/>
<path d="M34.1105 22.7978L26.8797 17.5507L19.6488 22.7978L22.41 14.305L15.1792 9.05791H24.1185L26.8797 0.565125L29.6409 9.05791H38.5802L31.3493 14.305L34.1105 22.7978ZM26.8797 14.8908L30.0161 17.165L28.8176 13.4826L31.954 11.2084H28.0781L26.8797 7.52601L25.6812 11.2084H21.8053L24.9417 13.4826L23.7433 17.165L26.8797 14.8908Z" fill="url(#paint0_linear_232_12757)"/>
<path d="M19.9039 16.9393H8.35273L6.96484 14.5086H20.8L19.9039 16.9393Z" fill="url(#paint1_linear_232_12757)"/>
<path d="M34.0196 16.9393H45.5708L46.9587 14.5087H33.1235L34.0196 16.9393Z" fill="url(#paint2_linear_232_12757)"/>
<path d="M1.77393 40.0309V37.2145H13.0956C13.693 37.2145 14.1228 37.1308 14.3851 36.9635C14.6474 36.7961 14.7785 36.4577 14.7785 35.9483V35.1405C14.7785 34.6747 14.6474 34.3436 14.3851 34.1471C14.1228 33.9506 13.7003 33.8523 13.1174 33.8523H6.01408C5.18353 33.8523 4.49505 33.7759 3.94864 33.6231C3.40223 33.4703 2.96874 33.2374 2.64818 32.9245C2.32762 32.6115 2.10542 32.2186 1.98156 31.7455C1.85771 31.2725 1.79578 30.7158 1.79578 30.0753V29.333C1.79578 28.5762 1.87592 27.9285 2.0362 27.39C2.19648 26.8514 2.44419 26.4184 2.77932 26.0909C3.11445 25.7635 3.55158 25.5233 4.09071 25.3705C4.62984 25.2176 5.27096 25.1412 6.01408 25.1412H10.6476V27.9576H6.32007C5.81008 27.9576 5.43488 28.0559 5.19446 28.2523C4.95404 28.4488 4.83383 28.8455 4.83383 29.4422V29.9225C4.83383 30.3883 4.94311 30.7194 5.16168 30.9159C5.38024 31.1124 5.75908 31.2106 6.29821 31.2106H13.2704C14.101 31.2106 14.804 31.2798 15.3796 31.418C15.9551 31.5563 16.425 31.7783 16.7893 32.0839C17.1536 32.3896 17.4159 32.7826 17.5761 33.2629C17.7364 33.7432 17.8166 34.3181 17.8166 34.9876V36.1666C17.8166 36.8652 17.7364 37.4583 17.5761 37.9459C17.4159 38.4335 17.1536 38.8301 16.7893 39.1358C16.425 39.4414 15.9551 39.667 15.3796 39.8126C14.804 39.9581 14.101 40.0309 13.2704 40.0309H1.77393Z" fill="black"/>
<path d="M42.6201 40.0309V28.0013H36.3691V25.1412H52.2151V28.0013H45.9641V40.0309H42.6201Z" fill="black"/>
<path d="M1.77393 40.0309V37.2145H13.0956C13.693 37.2145 14.1228 37.1308 14.3851 36.9635C14.6474 36.7961 14.7785 36.4577 14.7785 35.9483V35.1405C14.7785 34.6747 14.6474 34.3436 14.3851 34.1471C14.1228 33.9506 13.7003 33.8523 13.1174 33.8523H6.01408C5.18353 33.8523 4.49505 33.7759 3.94864 33.6231C3.40223 33.4703 2.96874 33.2374 2.64818 32.9245C2.32762 32.6115 2.10542 32.2186 1.98156 31.7455C1.85771 31.2725 1.79578 30.7158 1.79578 30.0753V29.333C1.79578 28.5762 1.87592 27.9285 2.0362 27.39C2.19648 26.8514 2.44419 26.4184 2.77932 26.0909C3.11445 25.7635 3.55158 25.5233 4.09071 25.3705C4.62984 25.2176 5.27096 25.1412 6.01408 25.1412H10.6476V27.9576H6.32007C5.81008 27.9576 5.43488 28.0559 5.19446 28.2523C4.95404 28.4488 4.83383 28.8455 4.83383 29.4422V29.9225C4.83383 30.3883 4.94311 30.7194 5.16168 30.9159C5.38024 31.1124 5.75908 31.2106 6.29821 31.2106H13.2704C14.101 31.2106 14.804 31.2798 15.3796 31.418C15.9551 31.5563 16.425 31.7783 16.7893 32.0839C17.1536 32.3896 17.4159 32.7826 17.5761 33.2629C17.7364 33.7432 17.8166 34.3181 17.8166 34.9876V36.1666C17.8166 36.8652 17.7364 37.4583 17.5761 37.9459C17.4159 38.4335 17.1536 38.8301 16.7893 39.1358C16.425 39.4414 15.9551 39.667 15.3796 39.8126C14.804 39.9581 14.101 40.0309 13.2704 40.0309H1.77393Z" fill="url(#paint3_linear_232_12757)"/>
<path d="M42.6201 40.0309V28.0013H36.3691V25.1412H52.2151V28.0013H45.9641V40.0309H42.6201Z" fill="url(#paint4_linear_232_12757)"/>
<path d="M25.7252 39.5066C24.6323 39.5066 23.7217 39.4156 22.9931 39.2337C22.2646 39.0518 21.6817 38.7607 21.2446 38.3604C20.8075 37.9602 20.4978 37.4362 20.3157 36.7885C20.1335 36.1408 20.0425 35.3439 20.0425 34.3978V29.7257C20.0425 28.7942 20.1335 28.001 20.3157 27.346C20.4978 26.691 20.8075 26.1634 21.2446 25.7631C21.6817 25.3629 22.2646 25.0718 22.9931 24.8898C23.7217 24.7079 24.6323 24.6169 25.7252 24.6169H29.6156V27.477H25.8782C25.3827 27.477 24.9711 27.517 24.6433 27.5971C24.3154 27.6771 24.0568 27.8117 23.8674 28.001C23.6779 28.1902 23.5432 28.4376 23.463 28.7433C23.3829 29.0489 23.3428 29.4273 23.3428 29.8785V34.2668C23.3428 34.7617 23.3829 35.1656 23.463 35.4785C23.5432 35.7915 23.6816 36.0353 23.8783 36.2099C24.075 36.3846 24.3373 36.5047 24.6651 36.5702C24.993 36.6357 25.3973 36.6684 25.8782 36.6684H31.4953C31.9615 36.6684 32.3549 36.6357 32.6755 36.5702C32.9961 36.5047 33.2547 36.3809 33.4514 36.199C33.6481 36.0171 33.7902 35.7587 33.8776 35.424C33.965 35.0892 34.0088 34.6598 34.0088 34.1358V30.6863H37.3309V34.3978C37.3309 35.3439 37.2399 36.1408 37.0577 36.7885C36.8756 37.4362 36.566 37.9602 36.1288 38.3604C35.6917 38.7607 35.1052 39.0518 34.3694 39.2337C33.6335 39.4156 32.7119 39.5066 31.6045 39.5066H25.7252Z" fill="black"/>
<path d="M25.7252 39.5066C24.6323 39.5066 23.7217 39.4156 22.9931 39.2337C22.2646 39.0518 21.6817 38.7607 21.2446 38.3604C20.8075 37.9602 20.4978 37.4362 20.3157 36.7885C20.1335 36.1408 20.0425 35.3439 20.0425 34.3978V29.7257C20.0425 28.7942 20.1335 28.001 20.3157 27.346C20.4978 26.691 20.8075 26.1634 21.2446 25.7631C21.6817 25.3629 22.2646 25.0718 22.9931 24.8898C23.7217 24.7079 24.6323 24.6169 25.7252 24.6169H29.6156V27.477H25.8782C25.3827 27.477 24.9711 27.517 24.6433 27.5971C24.3154 27.6771 24.0568 27.8117 23.8674 28.001C23.6779 28.1902 23.5432 28.4376 23.463 28.7433C23.3829 29.0489 23.3428 29.4273 23.3428 29.8785V34.2668C23.3428 34.7617 23.3829 35.1656 23.463 35.4785C23.5432 35.7915 23.6816 36.0353 23.8783 36.2099C24.075 36.3846 24.3373 36.5047 24.6651 36.5702C24.993 36.6357 25.3973 36.6684 25.8782 36.6684H31.4953C31.9615 36.6684 32.3549 36.6357 32.6755 36.5702C32.9961 36.5047 33.2547 36.3809 33.4514 36.199C33.6481 36.0171 33.7902 35.7587 33.8776 35.424C33.965 35.0892 34.0088 34.6598 34.0088 34.1358V30.6863H37.3309V34.3978C37.3309 35.3439 37.2399 36.1408 37.0577 36.7885C36.8756 37.4362 36.566 37.9602 36.1288 38.3604C35.6917 38.7607 35.1052 39.0518 34.3694 39.2337C33.6335 39.4156 32.7119 39.5066 31.6045 39.5066H25.7252Z" fill="url(#paint5_linear_232_12757)"/>
<path d="M25.1748 33.3424V30.7662H32.3874V33.3424H25.1748Z" fill="black"/>
<path d="M25.1748 33.3424V30.7662H32.3874V33.3424H25.1748Z" fill="url(#paint6_linear_232_12757)"/>
<defs>
<linearGradient id="paint0_linear_232_12757" x1="47.6469" y1="34.4417" x2="21.8702" y2="8.63653" gradientUnits="userSpaceOnUse">
<stop offset="0.04" stop-color="#0041A9"/>
<stop offset="1" stop-color="#78F1B9"/>
</linearGradient>
<linearGradient id="paint1_linear_232_12757" x1="23.7761" y1="24.9117" x2="11.6482" y2="12.7741" gradientUnits="userSpaceOnUse">
<stop stop-color="#3D13A9"/>
<stop offset="1" stop-color="#B93EFF"/>
</linearGradient>
<linearGradient id="paint2_linear_232_12757" x1="30.1511" y1="24.9118" x2="42.2753" y2="12.7742" gradientUnits="userSpaceOnUse">
<stop stop-color="#3D13A9"/>
<stop offset="1" stop-color="#B93EFF"/>
</linearGradient>
<linearGradient id="paint3_linear_232_12757" x1="26.9963" y1="40.0309" x2="26.9963" y2="25.1412" gradientUnits="userSpaceOnUse">
<stop offset="0.04" stop-color="#0041A9"/>
<stop offset="0.54" stop-color="#409FB1"/>
<stop offset="1" stop-color="#78F1B9"/>
</linearGradient>
<linearGradient id="paint4_linear_232_12757" x1="26.9964" y1="40.0309" x2="26.9964" y2="25.1412" gradientUnits="userSpaceOnUse">
<stop offset="0.04" stop-color="#0041A9"/>
<stop offset="0.54" stop-color="#409FB1"/>
<stop offset="1" stop-color="#78F1B9"/>
</linearGradient>
<linearGradient id="paint5_linear_232_12757" x1="20.0425" y1="32.0618" x2="37.3309" y2="32.0618" gradientUnits="userSpaceOnUse">
<stop stop-color="#3D13A9"/>
<stop offset="1" stop-color="#B93EFF"/>
</linearGradient>
<linearGradient id="paint6_linear_232_12757" x1="25.1748" y1="32.0579" x2="32.3874" y2="32.0579" gradientUnits="userSpaceOnUse">
<stop stop-color="#3D13A9"/>
<stop offset="1" stop-color="#B93EFF"/>
</linearGradient>
</defs>
</svg>
